<svg width="102" height="34" viewBox="0 0 102 34" fill="none" xmlns="http://www.w3.org/2000/svg">
<g clip-path="url(#clip0_4017_39691)">
<path d="M31.1299 16.9502C31.2497 16.9502 31.3599 16.9797 31.4697 17.0195C31.5796 17.0594 31.6798 17.1294 31.7598 17.209C31.8397 17.2887 31.9102 17.3885 31.9502 17.498C31.9901 17.6076 32.0097 17.7175 32.0098 17.8369C32.0098 20.6879 31.2002 23.36 29.8203 25.6328C30.3403 26.2708 30.6299 27.0786 30.6299 27.916C30.6298 29.9297 28.9799 31.5742 26.96 31.5742C26.11 31.5742 25.3004 31.2851 24.6504 30.7568C22.3804 32.1126 19.7296 32.9004 16.8896 32.9004C16.7698 32.9004 16.6597 32.8805 16.5498 32.8506C16.4399 32.8107 16.3397 32.7408 16.2598 32.6611C16.1798 32.5715 16.1103 32.4816 16.0703 32.3721C16.0203 32.2625 16 32.1528 16 32.0332C16 31.9136 16.0303 31.804 16.0703 31.6943C16.1103 31.5848 16.1799 31.485 16.2598 31.4053C16.3397 31.3256 16.4399 31.2557 16.5498 31.2158C16.6597 31.176 16.7698 31.1563 16.8896 31.1562C19.3395 31.1562 21.6297 30.4979 23.5996 29.3516C23.3996 28.903 23.2901 28.4144 23.29 27.916C23.29 25.9023 24.94 24.2578 26.96 24.2578C27.46 24.2678 27.9502 24.3768 28.4102 24.5762C29.5801 22.5924 30.25 20.2991 30.25 17.8369C30.2501 17.7175 30.2696 17.6076 30.3096 17.498C30.3496 17.3885 30.4201 17.2887 30.5 17.209C30.5899 17.1293 30.6801 17.0594 30.79 17.0195C30.8999 16.9698 31.01 16.9502 31.1299 16.9502ZM26.96 26.002C25.9 26.002 25.0498 26.8396 25.0498 27.9062C25.0499 28.3347 25.1902 28.753 25.46 29.0918C25.47 29.1018 25.4705 29.1023 25.4805 29.1123C25.8405 29.5707 26.3701 29.8203 26.96 29.8203C28.0199 29.8203 28.8701 28.9826 28.8701 27.916C28.8701 27.3379 28.6101 26.7895 28.1602 26.4307C27.8202 26.1515 27.4 26.002 26.96 26.002ZM21.9805 6.58301C22.4503 6.56333 22.8398 6.93201 22.8398 7.40039C22.8398 7.61947 22.7701 7.83866 22.6104 7.99805C21.9605 8.6558 20.8403 9.77164 20.6299 9.98145L22.6201 11.9658C22.7302 11.8561 23.9799 10.6099 24.6299 9.96191C24.7798 9.82242 24.9798 9.74245 25.1797 9.73242C25.6496 9.71249 26.0399 10.0814 26.04 10.5498C26.04 10.7691 25.9696 10.9889 25.8096 11.1484C25.1195 11.8363 23.9198 13.0327 23.7998 13.1523L25.6797 14.9961C26.0797 15.3948 26.0797 16.0329 25.6797 16.4316L23.2002 18.9043C23.2361 18.9401 24.5513 20.2417 25.2197 20.918C25.3597 21.0675 25.4402 21.2665 25.4502 21.4658C25.4702 21.9344 25.0999 22.3232 24.6299 22.3232C24.4099 22.3232 24.1902 22.2532 24.0303 22.0938C23.3203 21.3959 22.0598 20.1397 22.0098 20.0898L19.4004 22.6924C19.423 22.7147 20.7457 24.0241 21.4199 24.7061C21.5598 24.8555 21.6403 25.0546 21.6504 25.2539C21.6704 25.7224 21.3 26.1113 20.8301 26.1113C20.6101 26.1113 20.3905 26.0413 20.2305 25.8818C19.5105 25.1641 18.21 23.8682 18.21 23.8682L15.7305 26.3408C15.3305 26.7396 14.69 26.7395 14.29 26.3408L12.4297 24.4863C12.3296 24.596 11.0799 25.852 10.4199 26.5C10.27 26.6395 10.0701 26.7195 9.87012 26.7295C9.40012 26.7494 9.00977 26.3806 9.00977 25.9121C9.00977 25.6929 9.08031 25.4739 9.24023 25.3145C9.92995 24.6269 11.1391 23.4211 11.25 23.3105L9.25977 21.3262C9.15978 21.4259 7.90029 22.682 7.24023 23.3301C7.09034 23.4695 6.89029 23.5495 6.69043 23.5596C6.22048 23.5795 5.83016 23.2107 5.83008 22.7422C5.83008 22.5229 5.89959 22.3031 6.05957 22.1436C6.74942 21.4559 7.96986 20.2408 8.07031 20.1406L6.24023 18.3359C5.84023 17.9372 5.84023 17.2991 6.24023 16.9004L8.71973 14.4277C8.58824 14.2967 7.34951 13.0713 6.70996 12.4238C6.57011 12.2743 6.49046 12.0752 6.48047 11.876C6.47047 11.6367 6.55996 11.4171 6.70996 11.2676C6.85986 11.1182 7.06982 11.0187 7.30957 11.0186C7.52957 11.0186 7.75016 11.0885 7.91016 11.248C8.60018 11.9259 9.78993 13.1126 9.91992 13.2422L12.5195 10.6494C12.3578 10.4882 11.1492 9.28393 10.5098 8.64648C10.3698 8.49695 10.2903 8.307 10.2803 8.09766C10.2604 7.62931 10.6298 7.24045 11.0996 7.24023C11.3196 7.24023 11.5402 7.31022 11.7002 7.46973C12.3702 8.13765 13.5502 9.31434 13.7002 9.46387L16.1797 6.98145C16.5797 6.58269 17.2201 6.58269 17.6201 6.98145L19.4404 8.7959C19.6507 8.58633 20.8098 7.42951 21.4297 6.81152C21.5797 6.67196 21.7805 6.59298 21.9805 6.58301ZM17.4297 10.8691C17.1998 10.8593 16.9697 10.9586 16.7998 11.1279C16.7199 11.2076 16.6504 11.3076 16.6104 11.4072L15.7998 13.3516C15.64 13.7203 15.7598 14.1493 16.0996 14.3486C16.4396 14.548 16.8802 14.478 17.1602 14.1689L17.5703 15.7734L13.0996 17.1299C12.6599 17.2596 12.3901 17.7178 12.5 18.1562L13.5195 22.124C13.6295 22.5627 14.0803 22.8114 14.5303 22.6719C14.98 22.5322 15.2497 22.0742 15.1299 21.6357L14.2998 18.4551L18.7695 17.0996C19.2094 16.9701 19.4799 16.5018 19.3701 16.0732L18.7598 13.6807C19.1396 13.7903 19.5599 13.6108 19.75 13.2422C19.94 12.8733 19.85 12.434 19.54 12.2246L17.8896 11.0186C17.7597 10.919 17.5996 10.8691 17.4297 10.8691ZM15.1104 1C15.2302 1.00004 15.3401 1.01993 15.46 1.0498C15.57 1.08968 15.67 1.15951 15.75 1.23926C15.83 1.32898 15.9004 1.41866 15.9404 1.52832C15.9904 1.6379 16.0098 1.74765 16.0098 1.86719C16.0098 1.98671 15.9804 2.0965 15.9404 2.20605C15.9004 2.31566 15.83 2.41538 15.75 2.49512C15.67 2.57486 15.57 2.64469 15.46 2.68457C15.35 2.72443 15.2401 2.74413 15.1201 2.74414C12.6702 2.74414 10.3801 3.40247 8.41016 4.54883C8.61015 4.99741 8.71972 5.48595 8.71973 5.98438C8.71973 7.99808 7.0698 9.64258 5.0498 9.64258C4.54988 9.63258 4.05955 9.52357 3.59961 9.32422C2.4298 11.3078 1.75984 13.6005 1.75977 16.0625C1.76977 16.1821 1.7402 16.2927 1.7002 16.4023C1.66017 16.5119 1.58968 16.6117 1.50977 16.6914C1.41988 16.771 1.32958 16.841 1.21973 16.8809C1.10986 16.9306 0.999734 16.9502 0.879883 16.9502C0.759997 16.9502 0.64994 16.9207 0.540039 16.8809C0.43014 16.841 0.329963 16.7711 0.25 16.6914C0.170068 16.6117 0.0995873 16.5119 0.0595703 16.4023C0.0195703 16.2927 0 16.1821 0 16.0625C8.03561e-05 13.2117 0.799886 10.5503 2.17969 8.26758C1.65969 7.62957 1.37012 6.82176 1.37012 5.98438C1.37014 3.97069 3.02006 2.32617 5.04004 2.32617C5.88998 2.32618 6.69964 2.61527 7.34961 3.14355C9.61961 1.78779 12.2704 1 15.1104 1ZM5.04004 4.08008C3.98006 4.08008 3.12991 4.91773 3.12988 5.98438C3.12988 6.56252 3.38992 7.11085 3.83984 7.46973C4.17984 7.74885 4.60004 7.89844 5.04004 7.89844C6.10002 7.89842 6.9502 7.06079 6.9502 5.99414C6.95014 5.56557 6.80999 5.14649 6.54004 4.80762C6.53026 4.79787 6.52946 4.79798 6.51953 4.78809C6.15954 4.3297 5.62991 4.08009 5.04004 4.08008Z" fill="#1F8B4D"/>
</g>
<path d="M38.5503 8.42285V6.64844H51.1958V8.42285H45.9399V23H43.7949V8.42285H38.5503ZM58.9673 6.64844C60.7417 6.64844 62.0744 7.0153 62.9653 7.74902C63.8638 8.48275 64.313 9.56836 64.313 11.0059C64.313 11.7695 64.0959 12.4471 63.6616 13.0386C63.2274 13.6226 62.6359 14.0755 61.8872 14.3975C62.7707 14.6445 63.467 15.1162 63.9761 15.8125C64.4927 16.5013 64.751 17.3249 64.751 18.2832C64.751 19.7507 64.2756 20.9036 63.3247 21.7422C62.3739 22.5807 61.0299 23 59.293 23H53.6216V6.64844H58.9673ZM55.7778 21.2368H59.3379C60.3411 21.2368 61.131 20.9785 61.7075 20.4619C62.2915 19.9378 62.5835 19.2191 62.5835 18.3057C62.5835 16.3366 61.5129 15.3521 59.3716 15.3521H55.7778V21.2368ZM55.7778 13.6226H59.0347C59.978 13.6226 60.7305 13.3867 61.292 12.915C61.861 12.4434 62.1455 11.8032 62.1455 10.9946C62.1455 10.0962 61.8835 9.44482 61.3594 9.04053C60.8353 8.62874 60.0379 8.42285 58.9673 8.42285H55.7778V13.6226ZM70.7368 6.64844L76.0825 19.9902L81.4282 6.64844H84.2246V23H82.0684V16.6323L82.2705 9.75928L76.9023 23H75.2515L69.8945 9.79297L70.1079 16.6323V23H67.9517V6.64844H70.7368ZM87.3579 15.498V14.3188C87.3579 12.7466 87.6312 11.3577 88.1777 10.1523C88.7243 8.94694 89.4954 8.02604 90.4912 7.38965C91.4945 6.74577 92.64 6.42383 93.9277 6.42383C95.2454 6.42383 96.4022 6.74202 97.3979 7.37842C98.4012 8.01481 99.1724 8.93197 99.7114 10.1299C100.25 11.3203 100.52 12.7129 100.52 14.3076V15.3521C100.52 16.9318 100.269 18.2944 99.7676 19.4399C99.266 20.578 98.5622 21.4689 97.6562 22.1128L100.576 24.4038L99.105 25.7627L95.6572 23.0225C95.1182 23.1572 94.5492 23.2246 93.9502 23.2246C92.6624 23.2246 91.5207 22.9102 90.5249 22.2812C89.5291 21.6449 88.7542 20.7427 88.2002 19.5747C87.6536 18.3993 87.3729 17.0404 87.3579 15.498ZM89.5142 14.1504V15.3521C89.5142 17.2238 89.9035 18.6987 90.6821 19.7769C91.4683 20.855 92.5576 21.394 93.9502 21.394C95.3428 21.394 96.4209 20.8887 97.1846 19.8779C97.9482 18.8597 98.3413 17.4035 98.3638 15.5093V14.2964C98.3638 12.3722 97.9782 10.8898 97.207 9.84912C96.4434 8.80094 95.3503 8.27686 93.9277 8.27686C92.5726 8.27686 91.502 8.7972 90.7158 9.83789C89.9372 10.8711 89.5366 12.3086 89.5142 14.1504Z" fill="#1F8B4D"/>
<defs>
<clipPath id="clip0_4017_39691">
<rect width="32" height="32" fill="white" transform="translate(0 1)"/>
</clipPath>
</defs>
</svg>
